<svg width="1920" height="1080" viewBox="0 0 1920 1080" fill="none" xmlns="http://www.w3.org/2000/svg" role="img" aria-labelledby="title desc">
  <title id="title">KS WAYS full-bleed ocean freight port background</title>
  <desc id="desc">A wide cinematic ocean logistics background with a container vessel, gantry cranes, stacked containers, sea lanes, and port lights.</desc>
  <defs>
    <linearGradient id="sky" x1="0" y1="0" x2="1920" y2="1080" gradientUnits="userSpaceOnUse"><stop stop-color="#001112"/><stop offset=".45" stop-color="#05363B"/><stop offset="1" stop-color="#071D2C"/></linearGradient>
    <linearGradient id="sea" x1="0" y1="610" x2="1920" y2="1080" gradientUnits="userSpaceOnUse"><stop stop-color="#063F46"/><stop offset=".5" stop-color="#032428"/><stop offset="1" stop-color="#001112"/></linearGradient>
    <linearGradient id="cyan" x1="260" y1="280" x2="1520" y2="920" gradientUnits="userSpaceOnUse"><stop stop-color="#6FFFE7"/><stop offset=".55" stop-color="#21D4C2"/><stop offset="1" stop-color="#2D8CFF"/></linearGradient>
    <radialGradient id="glow" cx="70%" cy="25%" r="60%"><stop stop-color="#21D4C2" stop-opacity=".35"/><stop offset=".42" stop-color="#2D8CFF" stop-opacity=".13"/><stop offset="1" stop-color="#001112" stop-opacity="0"/></radialGradient>
    <filter id="soft" x="-20%" y="-20%" width="140%" height="140%"><feGaussianBlur stdDeviation="18"/></filter>
  </defs>
  <rect width="1920" height="1080" fill="url(#sky)"/>
  <rect width="1920" height="1080" fill="url(#glow)"/>
  <path d="M0 650C250 600 430 628 650 598C860 570 1050 544 1290 588C1510 628 1690 620 1920 570V1080H0V650Z" fill="url(#sea)"/>
  <g opacity=".16" stroke="#6FFFE7" stroke-width="3"><path d="M310 180L910 720M0 430L710 760M1680 160L1160 706M1920 390L1260 760"/><path d="M0 760C420 650 810 650 1190 720C1480 774 1710 734 1920 680" opacity=".7"/></g>
  <g opacity=".35" filter="url(#soft)"><ellipse cx="1380" cy="686" rx="250" ry="42" fill="#21D4C2"/><ellipse cx="1030" cy="774" rx="320" ry="48" fill="#2D8CFF"/></g>
  <g transform="translate(804 454)">
    <path d="M0 210H720L650 318H70L0 210Z" fill="#07171A" stroke="#6FFFE7" stroke-opacity=".28" stroke-width="4"/>
    <path d="M88 170H560L612 210H42L88 170Z" fill="#0B2C31"/>
    <g fill="#21D4C2" opacity=".82"><rect x="120" y="120" width="86" height="50" rx="4"/><rect x="214" y="120" width="86" height="50" rx="4"/><rect x="308" y="120" width="86" height="50" rx="4"/></g>
    <g fill="#2D8CFF" opacity=".76"><rect x="166" y="66" width="86" height="50" rx="4"/><rect x="260" y="66" width="86" height="50" rx="4"/><rect x="354" y="66" width="86" height="50" rx="4"/></g>
    <g fill="#F3FFFC" opacity=".84"><rect x="452" y="122" width="92" height="48" rx="4"/><rect x="496" y="74" width="92" height="48" rx="4"/></g>
    <path d="M34 256H682" stroke="url(#cyan)" stroke-width="5" stroke-linecap="round" opacity=".68"/>
  </g>
  <g stroke="#DFFFF9" stroke-opacity=".36" stroke-width="6" stroke-linecap="round">
    <path d="M394 640V322H572"/><path d="M572 322L722 472"/><path d="M572 322V650"/><path d="M232 666V410H350"/><path d="M350 410L470 538"/>
  </g>
  <g fill="#6FFFE7" opacity=".8"><circle cx="1150" cy="654" r="6"/><circle cx="1320" cy="692" r="5"/><circle cx="1510" cy="636" r="5"/><circle cx="608" cy="676" r="5"/></g>
  <rect width="1920" height="1080" fill="#001112" opacity=".12"/>
  <rect width="1920" height="1080" fill="url(#sky)" opacity=".08"/>
</svg>
