<svg width="1120" height="920" viewBox="0 0 1120 920" fill="none" xmlns="http://www.w3.org/2000/svg" role="img" aria-labelledby="title desc">
  <title id="title">KS WAYS warehouse and shipment tracking logistics visualization</title>
  <desc id="desc">A premium logistics image showing warehouse handling, container doors, barcode scanning, shipment tracking, and route control panels.</desc>
  <defs>
    <radialGradient id="glow" cx="48%" cy="38%" r="68%"><stop offset="0%" stop-color="#21D4C2" stop-opacity=".32"/><stop offset="44%" stop-color="#2D8CFF" stop-opacity=".16"/><stop offset="100%" stop-color="#001112" stop-opacity="0"/></radialGradient>
    <linearGradient id="cyanBlue" x1="100" y1="126" x2="1010" y2="812" gradientUnits="userSpaceOnUse"><stop stop-color="#6FFFE7"/><stop offset=".52" stop-color="#21D4C2"/><stop offset="1" stop-color="#2D8CFF"/></linearGradient>
    <linearGradient id="floor" x1="120" y1="644" x2="1010" y2="840" gradientUnits="userSpaceOnUse"><stop stop-color="#05292D"/><stop offset=".55" stop-color="#073F47"/><stop offset="1" stop-color="#092C43"/></linearGradient>
    <filter id="shadow" x="50" y="60" width="1020" height="820" filterUnits="userSpaceOnUse" color-interpolation-filters="sRGB"><feDropShadow dx="0" dy="34" stdDeviation="42" flood-color="#000" flood-opacity=".34"/></filter>
    <pattern id="grid" width="44" height="44" patternUnits="userSpaceOnUse"><path d="M44 0H0V44" stroke="#fff" stroke-opacity=".052"/></pattern>
    <style>.mono{font-family:Inter,Arial,sans-serif;font-weight:800;letter-spacing:.16em}.label{font-family:Inter,Arial,sans-serif;font-weight:900;letter-spacing:.055em}.small{font-family:Inter,Arial,sans-serif;font-weight:800;letter-spacing:.1em}</style>
  </defs>
  <rect width="1120" height="920" rx="58" fill="#001112"/><rect width="1120" height="920" rx="58" fill="url(#glow)"/><rect x="38" y="38" width="1044" height="844" rx="54" stroke="#fff" stroke-opacity=".14"/><rect x="38" y="38" width="1044" height="844" rx="54" fill="url(#grid)" opacity=".5"/>
  <g filter="url(#shadow)">
    <path d="M110 676C250 628 428 620 560 646C704 674 852 676 1014 620V842H110V676Z" fill="url(#floor)" opacity=".88"/>
    <path d="M178 230H888C930 230 964 264 964 306V674H142V266C142 246 158 230 178 230Z" fill="#fff" fill-opacity=".08" stroke="#fff" stroke-opacity=".14"/>
    <path d="M170 300H934" stroke="#6FFFE7" stroke-opacity=".22" stroke-width="5"/>
    <rect x="198" y="344" width="164" height="252" rx="16" fill="#21D4C2" fill-opacity=".82"/>
    <rect x="386" y="344" width="164" height="252" rx="16" fill="#2D8CFF" fill-opacity=".72"/>
    <rect x="574" y="344" width="164" height="252" rx="16" fill="#fff" fill-opacity=".86"/>
    <g stroke="#001112" stroke-opacity=".34" stroke-width="4"><path d="M228 388H332M228 432H332M228 476H332M416 388H520M416 432H520M416 476H520M604 388H708M604 432H708M604 476H708"/></g>
  </g>
  <g transform="translate(700 126)" filter="url(#shadow)">
    <rect width="288" height="210" rx="32" fill="#001112" fill-opacity=".82" stroke="#fff" stroke-opacity=".14"/>
    <text x="28" y="46" fill="#6FFFE7" class="mono" font-size="13">TRACKING PANEL</text>
    <text x="28" y="88" fill="#fff" class="label" font-size="30">MILESTONE</text>
    <path d="M34 136H92L120 110L164 126L246 78" stroke="url(#cyanBlue)" stroke-width="6" stroke-linecap="round" stroke-linejoin="round"/>
    <circle cx="34" cy="136" r="8" fill="#6FFFE7"/><circle cx="120" cy="110" r="8" fill="#21D4C2"/><circle cx="246" cy="78" r="8" fill="#2D8CFF"/>
  </g>
  <g transform="translate(126 126)" filter="url(#shadow)">
    <rect width="328" height="178" rx="30" fill="#001112" fill-opacity=".78" stroke="#fff" stroke-opacity=".14"/>
    <text x="28" y="46" fill="#6FFFE7" class="mono" font-size="13">WAREHOUSE HANDLING</text>
    <text x="28" y="91" fill="#fff" class="label" font-size="34">SCAN · SORT</text>
    <text x="28" y="126" fill="#fff" opacity=".64" class="small" font-size="14">Packing and handoff checks</text>
  </g>
  <g transform="translate(792 492)" filter="url(#shadow)">
    <rect width="190" height="210" rx="28" fill="#001112" fill-opacity=".82" stroke="#6FFFE7" stroke-opacity=".32"/>
    <text x="95" y="44" text-anchor="middle" fill="#6FFFE7" class="mono" font-size="12">BARCODE</text>
    <g fill="#fff" opacity=".9"><rect x="44" y="72" width="8" height="82"/><rect x="60" y="72" width="16" height="82"/><rect x="88" y="72" width="8" height="82"/><rect x="104" y="72" width="22" height="82"/><rect x="140" y="72" width="8" height="82"/></g>
    <text x="95" y="184" text-anchor="middle" fill="#fff" opacity=".62" class="small" font-size="12">CARGO ID</text>
  </g>
  <g stroke="url(#cyanBlue)" stroke-width="3" stroke-linecap="round" opacity=".86"><path d="M240 658C388 558 536 534 694 574C786 598 862 574 948 506"/><path d="M234 704C392 764 568 762 744 704" opacity=".5"/></g>
</svg>
